<?xml version="1.0" standalone="no"?>
<!DOCTYPE svg PUBLIC "-//W3C//DTD SVG 20010904//EN"
 "http://www.w3.org/TR/2001/REC-SVG-20010904/DTD/svg10.dtd">
<svg version="1.0" xmlns="http://www.w3.org/2000/svg"
 width="373.000000pt" height="376.000000pt" viewBox="0 0 373.000000 376.000000"
 preserveAspectRatio="xMidYMid meet">

<g transform="translate(0.000000,376.000000) scale(0.100000,-0.100000)"
fill="#000000" stroke="none">
<path d="M1475 3260 l-389 -390 322 -321 c177 -176 322 -325 322 -330 0 -10
-870 -879 -881 -879 -11 0 -509 499 -509 511 0 12 497 509 509 509 3 0 98 -92
211 -205 113 -113 211 -205 218 -205 13 0 132 117 132 130 0 12 -549 550 -561
550 -19 0 -779 -765 -779 -783 0 -8 24 -36 53 -62 89 -82 493 -484 604 -603
58 -61 113 -112 122 -112 9 0 160 144 336 320 l321 321 110 -111 c60 -61 109
-115 109 -120 0 -5 -143 -153 -317 -329 -175 -176 -318 -321 -318 -323 0 -11
773 -773 784 -773 15 0 786 759 786 773 0 4 -227 235 -505 511 -278 277 -505
506 -505 508 0 2 51 56 113 119 l112 115 67 -65 c36 -36 71 -66 77 -66 13 0
109 89 122 113 9 15 -52 79 -385 408 -218 215 -396 395 -396 400 0 12 505 519
516 519 13 0 514 -503 514 -515 0 -6 -92 -102 -205 -215 -113 -113 -205 -212
-205 -220 0 -16 116 -137 124 -129 139 134 556 553 556 558 0 10 -775 781
-785 781 -6 0 -185 -175 -400 -390z m660 -2173 c140 -140 255 -258 255 -262 0
-11 -502 -515 -512 -515 -10 0 -518 508 -518 518 0 9 503 512 512 512 4 0 122
-114 263 -253z"/>
<path d="M2428 2169 c-252 -253 -458 -463 -458 -467 0 -4 28 -35 63 -70 l62
-62 70 70 c39 38 74 70 80 70 5 0 155 -145 332 -322 l323 -323 202 202 c112
111 287 285 391 386 103 102 187 189 187 194 0 12 -767 778 -783 780 -6 1
-218 -205 -469 -458z m725 -54 c141 -140 257 -259 257 -264 0 -5 -115 -126
-255 -268 l-254 -258 -261 260 c-143 143 -260 262 -260 265 0 4 511 519 515
520 1 0 116 -115 258 -255z"/>
<path d="M760 2073 c-41 -43 -106 -110 -143 -149 l-68 -71 137 -141 c76 -78
143 -142 150 -142 19 0 286 270 282 286 -2 10 -275 294 -282 294 -1 0 -35 -35
-76 -77z"/>
</g>
</svg>
