<?xml version="1.0" standalone="no"?>
<!DOCTYPE svg PUBLIC "-//W3C//DTD SVG 20010904//EN"
 "http://www.w3.org/TR/2001/REC-SVG-20010904/DTD/svg10.dtd">
<svg version="1.0" xmlns="http://www.w3.org/2000/svg"
 width="875.000000pt" height="331.000000pt" viewBox="0 0 875.000000 331.000000"
 preserveAspectRatio="xMidYMid meet">

<g transform="translate(0.000000,331.000000) scale(0.100000,-0.100000)"
fill="#000000" stroke="none">
<path d="M2036 2349 c-455 -452 -808 -812 -813 -827 -54 -156 -93 -284 -93
-302 0 -20 4 -22 35 -17 19 3 74 23 122 45 48 22 107 45 129 52 36 11 157 127
848 819 532 532 806 813 806 826 0 29 -179 205 -208 205 -17 0 -233 -210 -826
-801z"/>
<path d="M365 2688 c-3 -7 -4 -526 -3 -1153 l3 -1140 1162 -3 1163 -2 5 22 c9
36 1 1852 -8 1866 -6 9 -19 3 -50 -23 -23 -19 -55 -46 -72 -59 l-30 -24 -3
-811 -2 -811 -1000 0 -1000 0 0 990 0 990 727 0 728 0 72 75 c40 42 73 80 73
85 0 16 -1759 13 -1765 -2z"/>
<path d="M7625 2106 c-194 -49 -348 -205 -400 -403 -19 -74 -19 -223 0 -297
64 -245 273 -408 525 -409 163 -1 284 47 395 158 118 117 165 233 165 405 0
159 -46 273 -157 390 -74 79 -186 142 -282 160 -71 13 -184 11 -246 -4z m277
-198 c241 -112 297 -440 109 -628 -177 -176 -464 -124 -577 105 -27 55 -29 69
-29 170 0 98 3 116 26 166 46 97 122 168 220 203 67 24 180 17 251 -16z"/>
<path d="M3290 2010 l0 -89 148 -3 147 -3 3 -452 2 -453 98 0 97 0 0 452 0
453 148 3 148 3 -3 87 -3 87 -392 3 -393 2 0 -90z"/>
<path d="M4260 1555 l0 -545 95 0 95 0 0 195 0 196 87 -3 88 -3 51 -90 c28
-49 77 -136 108 -192 l57 -103 109 0 109 0 -80 143 c-142 251 -149 264 -149
275 0 6 17 20 38 31 96 50 163 164 165 283 1 101 -22 164 -85 234 -98 107
-164 124 -468 124 l-220 0 0 -545z m465 355 c92 -35 138 -137 101 -223 -33
-79 -99 -108 -258 -115 l-118 -5 0 183 0 183 123 -6 c67 -3 136 -11 152 -17z"/>
<path d="M5581 2083 c-5 -10 -91 -241 -191 -513 -100 -272 -188 -510 -196
-528 l-13 -33 106 3 106 3 45 133 46 132 210 -2 209 -3 46 -132 46 -133 101 0
101 0 -197 534 c-108 293 -200 538 -204 545 -5 7 -43 11 -106 11 -84 0 -101
-3 -109 -17z m186 -423 l72 -210 -145 0 c-79 0 -144 3 -144 8 0 13 135 411
140 412 3 0 37 -95 77 -210z"/>
<path d="M6327 2093 c-4 -3 -7 -44 -7 -90 l0 -83 265 0 c146 0 265 -3 265 -6
0 -3 -119 -174 -265 -380 l-265 -374 0 -75 0 -75 395 0 396 0 -3 88 -3 87
-267 3 c-148 1 -268 4 -268 7 0 2 115 168 256 367 l256 362 0 85 0 86 -374 3
c-206 1 -377 -1 -381 -5z"/>
</g>
</svg>
