<?xml version="1.0" standalone="no"?>
<!DOCTYPE svg PUBLIC "-//W3C//DTD SVG 20010904//EN"
 "http://www.w3.org/TR/2001/REC-SVG-20010904/DTD/svg10.dtd">
<svg version="1.0" xmlns="http://www.w3.org/2000/svg"
 width="656.000000pt" height="618.000000pt" viewBox="0 0 656.000000 618.000000"
 preserveAspectRatio="xMidYMid meet">

<g transform="translate(0.000000,618.000000) scale(0.100000,-0.100000)"
fill="#000000" stroke="none">
<path d="M5225 5671 c-16 -10 -619 -609 -1340 -1331 -720 -722 -1327 -1326
-1349 -1343 -46 -36 -52 -50 -155 -347 -105 -298 -107 -338 -23 -331 23 2 190
62 405 145 l118 46 259 262 c142 145 760 764 1374 1377 651 651 1122 1129
1132 1149 14 30 14 38 3 62 -8 15 -85 95 -171 178 -138 134 -160 152 -190 152
-18 0 -46 -9 -63 -19z"/>
<path d="M986 4914 c-11 -29 -7 -3864 4 -3885 11 -19 44 -19 2023 -19 1552 0
2016 3 2025 12 9 9 12 381 12 1610 0 1416 -2 1599 -15 1604 -10 4 -57 -34
-139 -112 l-125 -119 0 -1342 c-1 -738 -4 -1348 -7 -1357 -6 -15 -169 -16
-1750 -16 l-1744 0 0 1670 0 1670 1248 0 1247 0 138 138 c75 75 137 143 137
150 0 9 -320 12 -1524 12 -1380 0 -1524 -1 -1530 -16z"/>
</g>
</svg>
