<?xml version="1.0" standalone="no"?>
<!DOCTYPE svg PUBLIC "-//W3C//DTD SVG 20010904//EN"
 "http://www.w3.org/TR/2001/REC-SVG-20010904/DTD/svg10.dtd">
<svg version="1.0" xmlns="http://www.w3.org/2000/svg"
 width="956.000000pt" height="476.000000pt" viewBox="0 0 956.000000 476.000000"
 preserveAspectRatio="xMidYMid meet">

<g transform="translate(0.000000,476.000000) scale(0.100000,-0.100000)"
fill="#000000" stroke="none">
<path d="M2775 3390 l-390 -390 323 -323 c177 -177 322 -326 322 -330 0 -9
-872 -877 -882 -877 -12 0 -508 497 -508 510 0 12 497 510 509 510 3 0 98 -92
211 -205 113 -113 211 -205 218 -205 11 0 68 52 116 108 l19 22 -279 275
c-153 151 -284 275 -289 275 -6 0 -185 -175 -397 -390 l-388 -389 391 -391
c214 -214 395 -390 402 -390 6 0 157 145 335 323 226 225 325 318 331 309 4
-7 54 -60 111 -118 l104 -105 -230 -231 c-126 -127 -271 -273 -321 -323 -51
-51 -93 -95 -93 -98 0 -12 772 -772 785 -772 14 0 785 759 785 773 0 5 -227
235 -505 511 -310 309 -502 507 -498 514 16 28 208 217 219 217 7 0 38 -27 70
-60 31 -33 63 -60 70 -60 15 0 111 86 125 112 7 13 -66 90 -386 409 -217 216
-395 396 -395 401 0 11 505 518 516 518 10 0 514 -508 514 -518 0 -4 -96 -102
-212 -219 l-213 -213 65 -65 c35 -36 68 -64 72 -63 13 5 558 549 558 557 0 10
-778 781 -788 781 -4 0 -183 -175 -397 -390z m659 -2175 c141 -140 256 -258
256 -262 0 -11 -503 -513 -515 -513 -12 0 -515 505 -515 517 0 10 502 513 512
513 4 0 122 -115 262 -255z"/>
<path d="M3724 2295 l-462 -463 67 -66 66 -66 70 70 c39 38 74 70 80 70 5 0
155 -145 332 -322 l323 -323 202 202 c112 111 287 284 391 386 103 102 187
189 187 194 0 12 -773 783 -785 782 -6 0 -218 -209 -471 -464z m734 -57 c138
-139 252 -255 252 -259 0 -3 -115 -123 -255 -265 l-255 -259 -260 260 c-143
143 -260 262 -260 265 0 10 505 510 515 510 6 0 124 -114 263 -252z"/>
<path d="M5362 2068 l3 -333 83 -1 c54 -1 82 2 82 10 1 6 2 61 3 121 l2 110
35 3 c35 3 35 2 82 -90 27 -51 57 -108 68 -125 l20 -33 84 0 c55 0 87 4 92 12
4 6 2 14 -4 16 -7 2 -12 8 -12 14 0 11 -61 101 -72 106 -5 2 -8 8 -8 14 0 11
-59 100 -74 111 -7 5 3 19 27 38 55 46 81 109 74 182 -6 71 -40 119 -108 154
-40 21 -58 22 -212 23 l-167 0 2 -332z m289 191 c24 -17 29 -27 29 -63 0 -63
-37 -98 -99 -94 l-46 3 -3 74 c-2 41 -1 80 2 88 8 21 83 16 117 -8z"/>
<path d="M6195 2388 c-60 -21 -81 -34 -125 -78 -46 -46 -58 -73 -81 -188 -30
-144 39 -321 144 -369 77 -35 205 -44 292 -21 184 49 272 305 172 503 -35 71
-98 124 -177 152 -42 15 -182 15 -225 1z m195 -151 c35 -31 47 -56 61 -123 31
-151 -46 -285 -155 -271 -49 7 -85 33 -113 83 -18 31 -23 55 -23 120 0 101 12
140 58 182 31 28 42 32 91 32 44 0 61 -5 81 -23z"/>
<path d="M6777 2393 c-3 -5 -4 -24 -3 -43 1 -19 3 -165 4 -325 l2 -290 164 1
164 2 62 33 c34 18 76 49 92 68 38 46 78 160 78 223 0 53 -17 137 -31 153 -5
5 -9 17 -9 27 0 11 -21 40 -47 66 -80 79 -126 92 -321 92 -83 0 -153 -3 -155
-7z m326 -162 c41 -38 57 -84 57 -166 0 -84 -17 -132 -62 -175 -28 -27 -38
-30 -94 -30 l-64 0 0 199 c0 226 -5 213 85 204 36 -4 58 -13 78 -32z"/>
<path d="M7600 2328 c-13 -40 -32 -102 -43 -138 -11 -36 -28 -87 -38 -114 -11
-27 -19 -58 -19 -70 0 -12 -4 -26 -8 -32 -5 -5 -14 -29 -21 -54 -8 -25 -24
-73 -37 -108 -14 -35 -22 -67 -19 -73 9 -14 162 -11 172 4 4 6 15 35 24 62
l16 50 113 3 c126 3 120 6 146 -74 l16 -50 86 4 c48 2 88 6 90 7 2 2 -1 11 -6
22 -6 10 -20 52 -32 93 -13 41 -31 97 -41 124 -11 27 -19 54 -19 61 0 7 -9 34
-19 61 -10 27 -25 69 -32 94 -7 25 -16 49 -21 54 -4 6 -8 17 -8 27 0 9 -10 39
-21 68 l-22 51 -117 0 -117 0 -23 -72z m173 -120 c26 -106 36 -149 43 -185 l6
-31 -77 -4 c-42 -2 -79 0 -81 4 -3 4 4 36 15 70 11 35 30 98 42 141 12 42 25
77 29 77 3 0 14 -33 23 -72z"/>
<path d="M8186 2068 l5 -332 82 -1 82 0 3 333 2 332 -90 0 -89 0 5 -332z"/>
<path d="M1991 2133 c-77 -82 -141 -150 -141 -152 0 -11 276 -281 287 -281 19
0 285 269 281 285 -2 11 -275 295 -283 295 -1 0 -66 -66 -144 -147z"/>
</g>
</svg>
